<svg width="826" height="541" viewBox="0 0 826 541" fill="none" xmlns="http://www.w3.org/2000/svg">
<g clip-path="url(#clip0_165_103)">
<path d="M803.638 539.805L804.863 539.781C804.389 526.162 802.936 512.594 800.515 499.183C795.218 470.47 786.41 451.613 774.336 443.136L773.633 444.138C801.838 463.941 803.624 539.049 803.638 539.805Z" fill="#F1F1F1"/>
<path d="M788.325 539.512L789.55 539.488C789.524 538.132 788.758 506.162 776.172 497.325L775.469 498.328C787.547 506.808 788.319 539.186 788.325 539.512Z" fill="#F1F1F1"/>
<path d="M766.664 444.249C770.046 444.249 772.788 441.507 772.788 438.125C772.788 434.742 770.046 432 766.664 432C763.281 432 760.539 434.742 760.539 438.125C760.539 441.507 763.281 444.249 766.664 444.249Z" fill="#F1F1F1"/>
<path d="M769.697 496.921C773.079 496.921 775.822 494.179 775.822 490.796C775.822 487.414 773.079 484.672 769.697 484.672C766.314 484.672 763.572 487.414 763.572 490.796C763.572 494.179 766.314 496.921 769.697 496.921Z" fill="#F1F1F1"/>
<path d="M791.18 447.921C790.566 452.645 791.204 457.448 793.029 461.849C796.217 458.285 798.307 453.876 799.046 449.152C799.786 444.429 799.144 439.592 797.197 435.225C794.114 438.857 792.039 443.235 791.18 447.921Z" fill="#F1F1F1"/>
<path d="M771.161 465.776C775.706 467.203 780.546 467.412 785.197 466.382C782.244 462.622 778.266 459.796 773.744 458.245C769.221 456.693 764.347 456.483 759.707 457.638C762.747 461.307 766.696 464.113 771.161 465.776Z" fill="#F1F1F1"/>
<path d="M770.934 512.422C774.12 513.423 777.513 513.569 780.773 512.847C778.703 510.211 775.915 508.231 772.745 507.143C769.575 506.056 766.158 505.908 762.906 506.718C765.037 509.29 767.805 511.257 770.934 512.422Z" fill="#F1F1F1"/>
<path d="M282.026 539.805L280.248 539.77C280.936 520.002 283.045 500.308 286.559 480.843C294.248 439.167 307.032 411.797 324.557 399.492L325.577 400.947C284.639 429.691 282.047 538.707 282.026 539.805Z" fill="#F1F1F1"/>
<path d="M304.251 539.379L302.473 539.344C302.511 537.376 303.622 490.972 321.89 478.146L322.911 479.602C305.38 491.91 304.259 538.906 304.251 539.379Z" fill="#F1F1F1"/>
<path d="M335.692 401.109C340.602 401.109 344.582 397.129 344.582 392.22C344.582 387.31 340.602 383.33 335.692 383.33C330.783 383.33 326.803 387.31 326.803 392.22C326.803 397.129 330.783 401.109 335.692 401.109Z" fill="#F1F1F1"/>
<path d="M331.29 477.561C336.2 477.561 340.18 473.581 340.18 468.671C340.18 463.761 336.2 459.781 331.29 459.781C326.38 459.781 322.4 463.761 322.4 468.671C322.4 473.581 326.38 477.561 331.29 477.561Z" fill="#F1F1F1"/>
<path d="M300.106 406.438C300.997 413.295 300.072 420.266 297.423 426.654C292.795 421.481 289.762 415.082 288.689 408.225C287.616 401.369 288.548 394.349 291.373 388.01C295.847 393.282 298.859 399.636 300.106 406.438Z" fill="#F1F1F1"/>
<path d="M329.165 432.355C322.568 434.427 315.542 434.73 308.791 433.234C313.078 427.777 318.851 423.675 325.415 421.423C331.98 419.172 339.055 418.866 345.789 420.544C341.378 425.868 335.645 429.941 329.165 432.355Z" fill="#F1F1F1"/>
<path d="M329.491 500.06C324.867 501.512 319.943 501.725 315.211 500.676C318.216 496.851 322.262 493.976 326.863 492.398C331.464 490.82 336.424 490.605 341.144 491.781C338.052 495.513 334.033 498.368 329.491 500.06Z" fill="#F1F1F1"/>
<path d="M144.679 161.234L140.401 135.066L128.324 132.047C128.324 132.047 118.738 129.094 116.498 148.402C114.257 167.709 115.994 203.758 115.994 203.758L89.4776 287.729C87.4414 288.696 85.7273 290.23 84.5404 292.147C83.3535 294.063 82.7441 296.281 82.7851 298.535C82.8262 300.789 83.5159 302.984 84.7718 304.856C86.0277 306.728 87.7966 308.198 89.8666 309.091C91.9366 309.984 94.22 310.261 96.4436 309.89C98.6672 309.519 100.737 308.515 102.404 306.998C104.072 305.481 105.267 303.515 105.846 301.337C106.426 299.158 106.365 296.858 105.672 294.713L140.15 215.836L144.679 161.234Z" fill="#9E6836"/>
<path d="M218.122 140.641L211.781 114.894L221.703 107.375C221.703 107.375 229.36 100.896 239.001 117.774C248.643 134.651 261.199 168.487 261.199 168.487L318.556 235.302C320.809 235.393 322.988 236.131 324.832 237.427C326.676 238.724 328.107 240.525 328.955 242.614C329.802 244.703 330.029 246.992 329.609 249.207C329.189 251.422 328.14 253.468 326.587 255.102C325.033 256.736 323.042 257.888 320.851 258.42C318.661 258.951 316.363 258.84 314.234 258.1C312.104 257.359 310.234 256.021 308.845 254.245C307.457 252.469 306.61 250.33 306.406 248.085L243.726 189.079L218.122 140.641Z" fill="#9E6836"/>
<path d="M267.689 526.093L282.072 526.092L288.915 470.614L267.686 470.615L267.689 526.093Z" fill="#9E6836"/>
<path d="M264.02 521.397L292.345 521.396H292.346C297.134 521.396 301.725 523.298 305.11 526.683C308.496 530.068 310.398 534.659 310.398 539.447V540.033L264.02 540.035L264.02 521.397Z" fill="#2F2E41"/>
<path d="M87.0167 526.093L101.4 526.092L108.243 470.614L87.0137 470.615L87.0167 526.093Z" fill="#9E6836"/>
<path d="M83.3477 521.397L111.673 521.396H111.675C116.462 521.396 121.053 523.298 124.439 526.683C127.824 530.068 129.726 534.659 129.726 539.447V540.033L83.3485 540.035L83.3477 521.397Z" fill="#2F2E41"/>
<path d="M175.23 91.3328C196.715 91.3328 214.132 73.9159 214.132 52.4311C214.132 30.9462 196.715 13.5293 175.23 13.5293C153.745 13.5293 136.328 30.9462 136.328 52.4311C136.328 73.9159 153.745 91.3328 175.23 91.3328Z" fill="#2F2E41"/>
<path d="M144.864 31.4559C151.151 25.1695 152.425 16.2513 147.71 11.5365C142.995 6.82175 134.077 8.09577 127.791 14.3821C121.504 20.6685 120.23 29.5867 124.945 34.3015C129.66 39.0163 138.578 37.7423 144.864 31.4559Z" fill="#2F2E41"/>
<path d="M215.777 19.103C218.396 12.9713 213.892 5.16944 205.716 1.67711C197.541 -1.81522 188.79 0.324423 186.17 6.45614C183.551 12.5879 188.055 20.3897 196.231 23.882C204.407 27.3744 213.158 25.2347 215.777 19.103Z" fill="#2F2E41"/>
<path d="M205.434 77.5544C214.18 61.5549 208.3 41.4947 192.3 32.7486C176.301 24.0025 156.241 29.8825 147.494 45.882C138.748 61.8814 144.628 81.9417 160.628 90.6878C176.627 99.4339 196.688 93.5538 205.434 77.5544Z" fill="#9E6836"/>
<path d="M141.771 40.9512C149.316 46.1511 158.271 48.9185 167.434 48.8819C164.165 51.1482 160.444 52.679 156.527 53.3689C168.71 55.9821 181.301 56.0529 193.512 53.5767C196.226 53.1415 198.846 52.2419 201.254 50.9175C202.455 50.2471 203.501 49.3316 204.324 48.2304C205.148 47.1293 205.73 45.8671 206.033 44.5261C206.845 39.8905 203.233 35.679 199.479 32.8407C193.732 28.5613 187.105 25.6129 180.079 24.2088C173.052 22.8047 165.801 22.98 158.851 24.722C154.312 25.8951 149.766 27.8773 146.818 31.522C143.87 35.1668 142.997 40.7857 145.805 44.5388L141.771 40.9512Z" fill="#2F2E41"/>
<path d="M159.918 104.651L127.24 131.338L155.793 199.417L156.337 210.31C156.337 210.31 126.697 237.638 108.358 313.978C90.0188 390.318 52.9785 491.756 52.9785 491.756L127.079 509.884L178.6 337.194L244.277 472.674L253.62 512.746L310.9 496.845L288.793 389.308L234.573 222.386L239.025 176.272C239.025 176.272 248.947 153.254 231.711 128.885L226.304 105.987L198.318 101.217L159.918 104.651Z" fill="#2F2E41"/>
<path d="M709.414 346.93H482.542C480.731 346.927 478.994 346.207 477.713 344.926C476.432 343.645 475.711 341.908 475.709 340.096V263.561C475.711 261.749 476.432 260.012 477.713 258.731C478.994 257.45 480.731 256.73 482.542 256.728H709.414C711.226 256.73 712.963 257.45 714.244 258.731C715.525 260.012 716.245 261.749 716.247 263.561V340.096C716.245 341.908 715.525 343.645 714.244 344.926C712.963 346.207 711.226 346.927 709.414 346.93Z" fill="#E5E5E5"/>
<path d="M571.379 277.228H511.244V284.061H571.379V277.228Z" fill="white"/>
<path d="M650.647 285.428C652.911 285.428 654.747 283.592 654.747 281.328C654.747 279.063 652.911 277.228 650.647 277.228C648.382 277.228 646.547 279.063 646.547 281.328C646.547 283.592 648.382 285.428 650.647 285.428Z" fill="#FFAC33"/>
<path d="M664.313 285.428C666.577 285.428 668.413 283.592 668.413 281.328C668.413 279.063 666.577 277.228 664.313 277.228C662.049 277.228 660.213 279.063 660.213 281.328C660.213 283.592 662.049 285.428 664.313 285.428Z" fill="#FFAC33"/>
<path d="M677.981 285.428C680.245 285.428 682.081 283.592 682.081 281.328C682.081 279.063 680.245 277.228 677.981 277.228C675.717 277.228 673.881 279.063 673.881 281.328C673.881 283.592 675.717 285.428 677.981 285.428Z" fill="#FFAC33"/>
<path d="M709.414 443.965H482.542C480.731 443.963 478.994 443.242 477.713 441.961C476.432 440.68 475.711 438.943 475.709 437.131V360.596C475.711 358.784 476.432 357.048 477.713 355.766C478.994 354.485 480.731 353.765 482.542 353.763H709.414C711.226 353.765 712.963 354.485 714.244 355.766C715.525 357.048 716.245 358.784 716.247 360.596V437.131C716.245 438.943 715.525 440.68 714.244 441.961C712.963 443.242 711.226 443.963 709.414 443.965Z" fill="#E5E5E5"/>
<path d="M571.379 374.263H511.244V381.096H571.379V374.263Z" fill="white"/>
<path d="M650.647 382.463C652.911 382.463 654.747 380.627 654.747 378.363C654.747 376.098 652.911 374.263 650.647 374.263C648.382 374.263 646.547 376.098 646.547 378.363C646.547 380.627 648.382 382.463 650.647 382.463Z" fill="#FFAC33"/>
<path d="M664.313 382.463C666.577 382.463 668.413 380.627 668.413 378.363C668.413 376.098 666.577 374.263 664.313 374.263C662.049 374.263 660.213 376.098 660.213 378.363C660.213 380.627 662.049 382.463 664.313 382.463Z" fill="#FFAC33"/>
<path d="M677.981 382.463C680.245 382.463 682.081 380.627 682.081 378.363C682.081 376.098 680.245 374.263 677.981 374.263C675.717 374.263 673.881 376.098 673.881 378.363C673.881 380.627 675.717 382.463 677.981 382.463Z" fill="#FFAC33"/>
<path d="M709.414 541H482.542C480.731 540.998 478.994 540.277 477.713 538.996C476.432 537.715 475.711 535.978 475.709 534.166V457.631C475.711 455.82 476.432 454.083 477.713 452.802C478.994 451.521 480.731 450.8 482.542 450.798H709.414C711.226 450.8 712.963 451.521 714.244 452.802C715.525 454.083 716.245 455.82 716.247 457.631V534.166C716.245 535.978 715.525 537.715 714.244 538.996C712.963 540.277 711.226 540.998 709.414 541Z" fill="#E5E5E5"/>
<path d="M571.379 471.299H511.244V478.132H571.379V471.299Z" fill="white"/>
<path d="M650.647 479.499C652.911 479.499 654.747 477.663 654.747 475.399C654.747 473.134 652.911 471.299 650.647 471.299C648.382 471.299 646.547 473.134 646.547 475.399C646.547 477.663 648.382 479.499 650.647 479.499Z" fill="#FFAC33"/>
<path d="M664.313 479.499C666.577 479.499 668.413 477.663 668.413 475.399C668.413 473.134 666.577 471.299 664.313 471.299C662.049 471.299 660.213 473.134 660.213 475.399C660.213 477.663 662.049 479.499 664.313 479.499Z" fill="#FFAC33"/>
<path d="M677.981 479.499C680.245 479.499 682.081 477.663 682.081 475.399C682.081 473.134 680.245 471.299 677.981 471.299C675.717 471.299 673.881 473.134 673.881 475.399C673.881 477.663 675.717 479.499 677.981 479.499Z" fill="#FFAC33"/>
<path d="M437.169 375.975C432.848 375.961 428.545 375.404 424.363 374.318L423.539 374.09L422.774 373.707C395.126 359.845 371.802 341.536 353.448 319.287C338.254 300.761 326.409 279.727 318.444 257.131C308.919 230.078 304.337 201.532 304.916 172.857C304.928 172.255 304.937 171.79 304.937 171.47C304.937 157.531 312.675 145.3 324.649 140.311C333.814 136.492 417.024 102.315 423.036 99.8451C434.359 94.1718 446.438 98.9071 448.371 99.7351C452.706 101.508 529.629 132.97 546.252 140.886C563.384 149.043 567.955 163.699 567.955 171.072C567.955 204.454 562.173 235.651 550.771 263.799C541.563 286.582 528.512 307.615 512.186 325.982C480.688 361.429 449.182 373.995 448.878 374.105C445.112 375.401 441.151 376.034 437.169 375.975ZM429.76 357.622C432.491 358.234 438.78 359.153 442.879 357.658C448.086 355.759 474.456 342.084 499.099 314.353C533.146 276.038 550.421 227.873 550.447 171.195C550.386 170.047 549.57 161.857 538.725 156.693C522.424 148.931 442.47 116.237 441.664 115.908L441.443 115.814C439.767 115.112 434.435 113.633 430.759 115.559L430.023 115.902C429.132 116.268 340.803 152.547 331.383 156.472C324.793 159.218 322.445 166.02 322.445 171.47C322.445 171.868 322.435 172.448 322.421 173.197C321.668 211.977 330.642 307.405 429.76 357.622Z" fill="#3F3D56"/>
<path d="M426.698 107.805C426.698 107.805 337.567 144.412 328.017 148.391C318.467 152.37 313.693 161.92 313.693 171.47C313.693 181.02 306.53 305.632 426.698 365.881C426.698 365.881 437.605 368.899 445.879 365.881C454.154 362.864 559.202 311.931 559.202 171.072C559.202 171.072 559.202 156.747 542.49 148.789C525.777 140.831 444.977 107.805 444.977 107.805C444.977 107.805 435.055 103.428 426.698 107.805Z" fill="#FFAC33"/>
<path opacity="0.2" d="M436.248 136.454V331.742C436.248 331.742 526.175 288.455 525.379 174.653L436.248 136.454Z" fill="black"/>
<path d="M825 541H1C0.734784 541 0.480429 540.895 0.292892 540.707C0.105356 540.52 0 540.265 0 540C0 539.735 0.105356 539.48 0.292892 539.293C0.480429 539.105 0.734784 539 1 539H825C825.265 539 825.52 539.105 825.707 539.293C825.895 539.48 826 539.735 826 540C826 540.265 825.895 540.52 825.707 540.707C825.52 540.895 825.265 541 825 541Z" fill="#CBCBCB"/>
</g>
<defs>
<clipPath id="clip0_165_103">
<rect width="826" height="541" fill="white"/>
</clipPath>
</defs>
</svg>
